<?xml version='1.0' encoding='utf-8'?>
<svg xmlns="http://www.w3.org/2000/svg" width="300mm" height="300mm" clip-rule="evenodd" fill-rule="evenodd" image-rendering="optimizeQuality" shape-rendering="geometricPrecision" text-rendering="geometricPrecision" version="1.1" viewBox="0 0 29994 29994"> <defs> <style type="text/css">  .fil11 {fill:#0D3051} .fil2 {fill:#0F102D} .fil8 {fill:#19AD83} .fil5 {fill:#24826A} .fil3 {fill:#543D98} .fil4 {fill:#D7DBF2} .fil6 {fill:#EDB8A7} .fil1 {fill:#F2C10E} .fil7 {fill:#FFC9E1} .fil12 {fill:#FFCC00} .fil9 {fill:#FFEFA5} .fil0 {fill:#FFFAD9} .fil10 {fill:#0F102D;fill-rule:nonzero}  </style> </defs> <rect class="fil0" width="29994" height="29994"/> <path class="fil1" d="m16880 879.47c2459.1 0 4452.6 1993.5 4452.6 4452.6 0 2459.1-1993.5 4452.6-4452.6 4452.6-640.65 0-1249.6-135.51-1800-379.15l1776.2-125.87 436.08-1331.2-3803.7 268.5c-661.68-777.1-1061.2-1784.3-1061.2-2884.9 0-2459.1 1993.5-4452.6 4452.6-4452.6z"/> <path class="fil2" d="m7079.8 18328s67.92-8274.5 16.96-8393.4c-95.45-222.73-1047.4-1021.5-458.74-1223.3l237.85-118.93-101.97-1835s-968.48-628.68-1223.3-1631.1c-254.87-1002.4 17-985.44 135.92-985.44 118.94 0 526.71 101.95 679.62 560.68 152.91 458.74 424.78 577.69 1019.4 594.67 594.66 16.98 8206.4-407.8 8682.2-764.59 475.74-356.78 1121.4-1036.4 1546.2-1138.4s373.77 373.77 271.84 764.56c-101.92 390.79-1002.4 1631.1-1002.4 1852s-101.93 1733 118.96 1767c220.88 33.98 764.58-84.91 747.57 169.92-17.01 254.84-645.55 1053.4-560.61 1461.2 84.95 407.78 526.76 8631.2 662.69 8665.2 135.93 33.98 356.81 50.98 356.81 322.83 0 271.84 135.93 1444.2 33.98 1665.1-101.95 220.88-1512.2 314.35-1580.1 144.43s-178.37-1733-169.89-1835 271.84-195.39 271.84-195.39l-569.03-8656.7s-8189.4 458.73-8291.4 492.71 50.97 8019.6 50.97 8019.6 339.82-67.94 424.78 152.94c84.94 220.88 186.91 2038.8 34 2259.7-152.91 220.89-1554.6 152.89-1673.6 42.46-118.96-110.42-72.21-1966.6-29.72-2094s369.3-63.67 369.3-63.67zm4961.4-11613 67.97 1121.4s-0.03 186.89 280.32 169.89c280.34-17.01 3771.9-220.88 3771.9-220.88s212.37 25.51 212.37-186.89c0-212.41-110.27-1265.8-110.27-1265.8s25.49-186.92-322.83-169.92c-348.31 17.01-3619 339.83-3619 339.83s-271.87 25.49-280.5 212.4zm-4502.6 271.87s67.97 1282.8 93.44 1393.2c25.49 110.43 212.38 101.95 322.83 93.44 110.46-8.5 3287.7-322.83 3287.7-322.83s67.99-17 76.47-220.88c8.48-203.87-33.98-934.47-67.97-1036.4-33.98-101.95-178.4-186.92-441.75-169.92-263.37 17-3041.3 161.41-3041.3 161.41s-212.37 25.49-229.38 101.95zm-437.41 1949.7s9480.7-832.53 9599.6-713.6c118.93 118.94-178.4 730.61-280.35 781.57s-8750.2 722.1-8911.6 654.13c-161.42-67.97-586.25-586.17-581.98-654.13 4.26-67.97 174.26-67.97 174.26-67.97z"/> <path class="fil3" d="m10798 22405s-1282.1-875.2-2111.3-1085.4c-829.22-210.23-1034.3 52.77-1395.7 383.29-826.8 756.11-1990.8 721.57-1677.5 502.49 100.5-70.29 415.67-338.46 112.41-515.47-303.25-177-986.51 1.63-1127-199.32-140.51-200.96 458.94-45.53 415.72-338.47-43.21-292.95-1401.2 116.7-1473.8-149.74s850.85-390.24 668.2-651.55c-182.65-261.32-1369.2-263.61-1162.2-438.3 206.27-174.04 688.29-327.21 503.36-495.56-230.52-209.85-991.59-784.92-1036.4-1088.7s1592.8 651.92 1682.6 283.89-168.76-1080.6 52.68-1157.6 661.65 1065.2 880.78 822.18c219.13-242.99 55.44-1015.4 359.26-1060.3s304.59 1529.9 454.14 1341.6c149.56-188.33 196.43-1267.7 464.85-1251.9 268.42 15.82 354.05 1714.6 668.7 1668.2 314.65-46.42 381.6-1020.7 716.68-1003.6 335.07 17.09 313.97 2503.6 667.36 2795.1 353.39 291.54 2329 1208.6 2444.9 1468.6 115.95 260.04-107.73 170.6-107.73 170.6z"/> <path class="fil3" d="m8302.6 21044-646.38-248.31s-1020.4 749.16-1105.5 772.84c-85.14 23.68-59.35-102.07 132.38-230.16 191.72-128.09 834.44-505.58 816.83-624.92s-645.29-353.76-795.61-320.53c-150.31 33.24-1160.8 548.14-1230.2 453.06-69.49-95.09 1078.2-469.44 1007.9-569.95-70.24-100.5-718.61-437.26-941.84-409.87-223.23 27.4-1653.6-11.03-1539.2-100.01 114.39-88.97 1155 51.35 1156.1-54.15s-1894.2-928.91-1764-948.11c130.2-19.21 1692.4 725.93 1833.5 705.11 141.08-20.81-730.33-967.61-510.11-977.92 220.22-10.32 637.07 936.97 920.27 1128 283.21 191.07 1058.5 486.88 1058.5 486.88s-274.42-1334.2-185.67-1258.6c88.73 75.61 215.43 1309.6 401.79 1370.8 186.37 61.21 564.67 371.29 697.74 296.2 133.08-75.1-167.32-1172.8-34.9-1214.5s175.65 1265.6 260.57 1352.9c84.93 87.28 523.35 316.45 467.85 391.15z"/> <path class="fil3" d="m9956.2 19042s-818.62-281.35-604-963.7c214.62-682.36 639.98-993.79 55.5-1493.2-584.5-499.36-536.18-582.2-322.1-1205.1s-333.16-651.77-440.51-1265.7c-107.35-613.91-95.11-649.51-95.11-649.51s33.31-386.56-261.43-686.82c-294.75-300.24-262.06-1900.7 76.64-1844 338.68 56.71 198.57 1043.3 969.92 1288.4 771.34 245.2 576.18 755.15 427.74 1360.8-148.44 605.61 867.03 835.26 664.1 1541.5s112.93 655.58 792.53 1167.7c679.59 512.15-656.64 1505.4-374.15 1841.3 282.5 335.87 567.29 1070.5 546.19 1421.4s-1435.3-513.19-1435.3-513.19z"/> <path class="fil4" d="m10961 19129s-480.51-165.18-665.71-726.26 403.16-478.27 108.38-1415.3c-294.79-937.02-927.13-776.22-725.28-1363.5 201.84-587.3 204.12-984.54-154.62-1446.1-358.74-461.58-243.97-650.95-219-1100 24.99-449.09-853.99-960.09-903.23-1424.7 0 0-132.3 153.52 211.66 600.04 343.97 446.53 596.17 523.28 505.28 1019.3s66.79 818.87 361.82 1089.4 200.02 894.39 79.21 1245.9 41.19 531.49 208.15 653.57c166.96 122.09 578.69 646.49 577.43 1098.8-1.26 452.28-381.69 734.45-249.61 1088.3 132.08 353.8 717.57 749.04 865.52 680.68z"/> <path class="fil5" d="m11543 18688s188.35-935.16-580.08-1111.1c-768.42-175.93-1301.5 55.15-1450.9-778.79-149.36-833.95-255.05-834.13-966.63-977.45-711.57-143.32-434.27-679.82-958.3-1123.8-524.04-443.99-564.7-452.18-564.7-452.18s-386.17-183.6-507.54-631.12c-121.38-447.5-1661.6-1307.8-1796.3-954.09-134.7 353.66 881.51 769.85 685.11 1639.9-196.4 870.07 397.24 968.48 1055.8 1164.6 658.58 196.11 311.43 1289.7 1096.1 1490 784.67 200.35 560.56 472.5 669.12 1404 108.56 931.5 1797.3 213.96 1959.4 669.67 162.08 455.7 702.1 1135.7 1047.5 1311 345.43 175.35 311.33-1650.8 311.33-1650.8z"/> <path class="fil4" d="m11065 19691s110.52-548.93-319.92-1037.5c-430.43-488.59-679.34 117.04-1406.2-685.14-726.92-802.18-221.84-1314-892.75-1449.1-670.91-135.12-1049.9-354.18-1289.1-952.39-239.15-598.21-483.16-594.54-924.14-820.89-440.98-226.36-437.41-1346.8-851.83-1652.4 0 0 219.68-40.33 452.74 535.46 233.07 575.78 165.6 858.36 687.97 1048.2 522.36 189.83 741.53 519.55 834.47 950.77 92.94 431.23 739.15 688.32 1140.7 769.19 401.54 80.88 482.49 335.16 505.6 561.93 23.12 226.77 292.52 910.36 723.33 1161s911.01 46.05 1173.9 368.7 312.7 1099.6 165.29 1202.2z"/> <path class="fil6" d="m11798 20549s-1409.7 455.1-2053.2 957.52c-643.43 502.42-565 810.86-527.1 1276.7 86.74 1065.7-619.94 1923.3-601.97 1558.9 5.77-116.9-12.19-511.4-323.01-386.19-310.81 125.2-575.64 744.92-809.35 733.39-233.72-11.55 234.02-372.73-12.17-511.44-246.2-138.7-731.35 1125-974.73 1023.9s203.23-869.86-100.64-884.92c-303.88-15.06-999.45 878.44-1010.1 620.15-10.63-257.32 155.73-710.4-79.37-669.38-293.06 51.13-1171.8 288.8-1427.1 144.95-255.33-143.86 1423.1-820.01 1198-1103-225.03-282.93-913.59-504.59-842.19-716.63 71.41-212.03 1190.2 123.89 1135.1-183.45-55.13-307.35-733.39-635.61-589.52-890.95 143.86-255.33 1331.9 664.92 1277.3 442s-841.17-889.43-672.28-1082.6c168.88-193.17 1500.1 735.61 1649.1 471.18 148.99-264.44-546.59-884.63-337.76-1127.3 208.82-242.71 2071.6 1227.2 2498.2 1131.2 426.51-96.03 2273.3-1049.6 2537.2-985.02 263.91 64.62 65.67 181 65.67 181z"/> <path class="fil7" d="m9313.2 21636-565.24 342.27s-31.67 1207.6-63.62 1285.6c-31.93 78.06-111.67-14.92-96.16-234.41 15.52-219.49 106.66-924.93 6.37-981.43-100.28-56.51-644.12 279.79-706.95 412.58-62.84 132.78-265.39 1195.9-377.73 1192.7-112.35-3.2 276.43-1087.6 159.56-1093.4-116.87-5.8-749.97 286.23-859.84 470.61-109.87 184.36-975.27 1240.6-975.48 1102.3-0.22-138.29 714.13-841.04 635.2-903.53-78.92-62.51-1808.2 885.31-1746.5 775.88 61.65-109.43 1537.1-851.81 1603.9-970.38 66.81-118.57-1156.8-15.05-1035.8-187.15 121-172.11 1079.1 67.47 1388.8-34.38 309.7-101.86 986.16-513.59 986.16-513.59s-1166.7-573.25-1057.8-595.96c108.91-22.71 1113.6 603.36 1268.8 498.6 155.13-104.76 610.2-208.73 631.39-353s-982.27-559.58-936.29-683.84c45.97-124.26 1057.1 607.6 1172.6 594.59 115.48-13.01 544.67-209.64 568.56-124.1z"/> <path class="fil8" d="m13299 21183s-1319.4-673.61-2129.7-772.45c-810.35-98.83-972.69 174.9-1274.9 531.44-691.32 815.62-1797.3 923.53-1527.2 678.3 86.64-78.67 352.59-370.61 44.14-501.52-308.45-130.92-933.66 120.71-1091-52.55-157.28-173.26 428.94-98.53 352.64-370.62s-1312.3 279.74-1413.2 36.29c-100.9-243.44 758.29-472.2 553.82-697.49-204.47-225.3-1328-84.14-1153.1-274.52 174.24-189.66 612.03-392.87 416.63-529.91-243.56-170.81-1033.5-623.24-1112.6-905.42-79.12-282.18 1586.6 424.71 1627.1 65.48 40.55-359.23-290.28-1002.5-89.97-1102.2s755 928.39 933.08 671.89-70.19-967.94 212.01-1047.1c282.18-79.13 473.13 1411.4 591.95 1215.1s32.8-1223.7 288.8-1241.2 542.27 1580.3 834.52 1498.3c292.23-81.94 237.92-1012.3 557.18-1036.6 319.25-24.31 599.63 2332 969.38 2565.3 369.74 233.27 2350.6 862.73 2491.8 1094.9 141.16 232.15-81.36 174.52-81.36 174.52z"/> <path class="fil0" d="m10773 20197-641.87-156.97s-875.37 832.43-953.12 865.12c-77.74 32.69-68.51-89.44 97.51-233.85 166.02-144.42 728.82-579.4 697.73-690.24-31.07-110.84-653.58-256.92-791.86-207.3-138.27 49.62-1032.6 659.1-1109.8 577.48-77.26-81.61 963.88-574.61 885.26-661.27-78.62-86.65-733.07-327.12-941.07-274.22-208 52.91-1566.6 189.31-1469.1 91.27 97.53-98.05 1099.6-90.92 1087.8-190.92-11.72-99.99-1905.3-650.5-1784.3-684.42 120.94-33.91 1689.7 482.74 1820.8 445.99 131.04-36.74-808.22-827.73-601-864.1 207.21-36.36 716.23 810 1007.4 956.66 291.17 146.65 1060.8 333.01 1060.8 333.01s-420.94-1229.9-327.81-1169 362.13 1213.7 545.94 1249.1c183.81 35.42 579.38 283.25 696.27 196.1 116.91-87.16-300.05-1089.9-179.74-1145.4 120.32-55.47 319.15 1176.8 410.09 1249.2 90.93 72.36 533.63 236.32 490.11 313.75z"/> <path class="fil0" d="m8667.2 24646s-91.8-298.38-80.32-539.37c11.47-241 28.68-424.62 28.68-424.62s-5.75-109.03 114.76-424.62c120.51-315.6 206.58-504.96 309.86-573.81 103.28-68.86 131.97-200.82 143.45-269.69 11.48-68.86 68.85-186.49 123.36-241 54.52-54.51 111.9-106.16 111.9-106.16s88.92-591.03 88.92-659.89 189.35-418.88 212.31-487.73c22.95-68.86 654.14-1199.3 654.14-1199.3l393.05-651.26s106.16-327.08 347.15-510.7 596.77-470.52 631.2-608.23c34.41-137.71 22.94-367.24 22.94-367.24s-493.47-608.24-539.37-1078.8c-45.89-470.52-195.05-986.95 0.04-1480.4 195.08-493.48 447.56-826.29 596.75-757.43s1113.2 470.53 1273.8 436.09c160.66-34.43 1560.8 149.19 1732.9 401.66 172.15 252.47 1388.6 1354.2 2031.3 1583.7 642.65 229.53 1905 688.58 2042.7 734.48s1216.5 413.13 1423 895.14c206.56 482 872.23 1514.8 964.04 2341.1s-1641.1 1348.4-1681.2 1348.4c-40.16 0-344.28 154.91-407.4 206.56s-367.24 304.12-401.66 424.62c-34.43 120.51-197.94 318.48-218.03 381.6s-114.77 57.38-220.93 34.42c-106.15-22.95-416.01-71.73-464.78-77.46s-352.89-60.25-352.89-60.25l-3414.2 2665.3s-832.02 622.58-900.88 668.49c-68.86 45.9-206.57 160.66-206.57 160.66l-74.61 226.67s-14.33 281.18-60.23 378.72c-45.91 97.55-120.5 154.94-160.67 166.42s-91.81 34.42-131.98 97.54c-40.16 63.13-103.29 77.46-131.97 80.33s-111.89-22.96-111.89-22.96l-60.26 54.51s-63.14 109.02-131.98 120.49c-68.86 11.47-164.97 5.74-164.97 5.74s-103.29 98.98-121.94 110.46c-18.66 11.48-131.97 54.52-169.28 53.08-37.3-1.44-129.11-14.34-146.32-47.34-17.22-32.99-31.55-94.67-25.81-133.41 5.73-38.73-4.31-133.4-4.31-133.4l-2603.6 1675.5s-143.45 34.43-197.97 20.09c-54.51-14.36-272.56-109.02-281.17-255.35-8.61-146.32 129.1-195.09 129.1-195.09l780.36-530.79 1870.6-1096 25.79-81.76s-342.85 8.61-434.66-22.96c-91.81-31.55-206.58-111.88-223.79-160.66-17.22-48.77-71.73-140.58-71.73-140.58s-278.3 111.89-372.98 123.37c-94.67 11.48-341.38 5.73-469.06-71.73-127.67-77.46-157.8-167.84-156.36-197.96 1.44-30.13-21.48-193.67-65.94-246.75-44.47-53.08-147.75-127.68-147.75-127.68s-149.15-253.9-183.57-385.87c-34.41-131.98-111.89-338.54-163.53-450.44s-269.68-482.03-295.6-576.54zm3078.6 1302.4s-51.65-654.14-48.78-760.29c2.88-106.16-71.71-737.34-71.71-880.8 0-143.45 5.74-275.43 63.12-407.4 57.39-131.98 195.12-570.97 229.55-714.41 34.43-143.45 212.33-837.78 220.95-898.02 8.61-60.25 48.78-106.16 68.86-123.38 20.09-17.21 131.97-37.29 157.8-25.81 25.82 11.48 255.35 335.67 272.57 361.5 17.21 25.82 263.96 249.6 335.68 309.86 71.73 60.26 401.69 134.85 438.99 186.49s459.06 295.51 137.73 570.94c-321.34 275.43-757.43 539.37-195.1 573.8s3551.9-1279.6 3620.7-1314c68.86-34.42-45.91 34.43-45.91 34.43s-883.65 694.3-923.82 723c-40.17 28.68-2742.8 2008.3-2742.8 2008.3l-613.97 401.66s-332.8-63.12-453.3-51.64c-120.51 11.47-413.14 74.59-450.6 5.77z"/> <path class="fil9" d="m12741 26144s4838.3-3690.7 4930.2-3699.9c91.8-9.18 156.07-64.26 156.07 0 0 64.27-4902.6 3883.5-4976.1 3901.9-73.44 18.36-110.17-201.98-110.17-201.98z"/> <path class="fil9" d="m12299 18209s26.79 126.24 164.51 286.9c137.71 160.66 1480.1 967.84 1564.3 925.76s218.04-26.78 263.95 15.3c45.9 42.08 114.77 141.54 114.77 141.54s-115.05-1250.9-138-1488.1c-22.96-237.18-57.65-248.68-57.65-248.68s573.81-244.82 703.86-367.24c130.06-122.41 1254.7-650.31 1254.7-650.31s-1132.5 15.33-1254.9-30.58-803.33-45.9-803.33 22.96c0 68.85-627.57 979.3-1232 1231.8 0 0-413.14 175.96-580.23 160.67z"/> <path class="fil9" d="m18248 20099s145.37-214.23 413.15-283.08 413.14 130.06 405.49-99.45c-7.65-229.53 175.97-680.92 436.09-818.63s504.95 156.83 466.7 26.76c-38.26-130.05-451.41-313.67-849.24-68.85-397.84 244.82-543.2 424.61-512.6 248.64 30.6-175.96 436.08-413.13 665.62-612.05 229.53-198.92 172.11-539.41 57.35-661.81-43.06-45.94-52.75-97.5-90.43-118.27-210.81-116.16-309.9 179.83-464.24 428.13-175.96 283.07-336.63 627.37-451.39 765.08s-497.3 428.45-657.97 566.16-141.52-677.1-164.49-921.92-210.39-933.41-210.39-673.28c0 260.14-145.37 761.25-198.93 447.57-53.55-313.67-126.24-807.14-179.79-470.52-53.55 336.63 149.18 1105.5 248.65 1495.7s328.99 937.22 436.09 990.78c107.11 53.56 107.11-3.81 175.97-133.87 68.87-130.07 61.21-183.62 160.67-214.23 99.46-30.6 229.52-22.96 229.52-22.96l84.18 130.07z"/> <path class="fil10" d="m18024 21703s-535.56-53.56-688.57-214.23c0 0 284.99-447.57 292.64-665.62s-84.15-485.83-84.15-485.83 240.99-153.03 275.43-218.06c34.43-65.03 110.94-149.19 110.94-149.19s218.04-45.89 286.9 49.74 130.06 470.52 130.06 470.52 91.81 684.75 141.54 768.91c49.72 84.16 267.77 114.75 279.25 164.48 11.48 49.74-65.04 68.88-306.03 133.9-241 65.03-438.01 145.37-438.01 145.37zm-6767.5-7419.6s46.95-138.1 169.25-329.76c11.73-19.33 23.68-38.41 35.83-57.24 45.68-70.71 96.29-135.26 149.97-194.29 342.82-404.36 975.94-874.51 2073.8-894 1939.5-34.43 2248.9 1355.9 3878.5-21.25 1629.6-1377.1 4269.2-6288.9 7757.9-2019.8 3537.7 4329 183.96 12236-6059.4 11415 0 0 315.6-409.32 350.03-598.67s34.43-235.26 34.43-235.26 372.97 22.96 694.29-114.76c321.34-137.71 602.5-413.14 602.5-413.14s-223.77-694.33-292.62-872.22c-68.87-177.88-573.79-1176.3-768.89-1451.7-195.09-275.43-401.64-611.1-473.38-691.43-71.74-80.34-243.86-131.98-269.69-131.98-25.82 0-189.36-14.35-189.36-14.35s-2077.2-694.32-2441.5-774.66c-364.37-80.32-846.37 0.01-920.97 8.62-47.18 5.44-202.26 47.62-309.86 77.87-3.03 26.42-8.89 36.12-8.89 36.12-147.19 52.59-226.12-12.58-356.78 34.15-115.34 41.27-259.89 124.25-259.89 124.25s-261.66-73.45-367.24-82.62c-105.58-9.18-174.54 42.54-174.54 42.54-27.92-128.53-13.69-492.41-13.69-492.41s160.66 13.78 312.14-64.26c151.49-78.04 316.73-537.11 280.01-743.68s-197.4-289.19-367.25-183.61c-169.84 105.59-252.47 436.09-252.47 436.09s-55.08-105.58-151.49-270.84c-96.4-165.26-532.5-298.38-532.5-298.38 119.35 486.59 431.51 716.11 431.51 716.11-376.41 0-743.65-1009.9-743.65-1009.9 468.22 1505.7 201.92 2148.3 201.92 2148.3-36.72-1267-463.65-1574.5-463.65-1574.5 114.76 215.75 160.66 523.31 160.66 523.31-183.6-353.47-459.04-610.53-459.04-610.53 133.12 224.94 224.93 564.63 224.93 564.63-201.98-381.01-298.38-491.19-298.38-491.19 45.91 89.51 87.22 220.34 87.22 220.34-215.76-302.97-376.42-445.27-376.42-445.27 39.02 305.27 355.76 576.1 355.76 576.1-199.69-68.86-399.37-387.89-399.37-387.89 55.08 234.11 241 351.18 241 351.18-277.72-84.92-344.29-358.06-344.29-358.06 43.61 227.24 137.71 341.99 137.71 341.99-468.23-339.69-514.12-1413.9-514.12-1413.9l-50.09 192.86s-78.03-4.59-201.98 234.12c-123.95 238.7-160.69 936.45-64.29 1404.7 96.41 468.22 504.9 1106.3 504.9 1106.3s-25.27 624.28-43.63 674.77c-18.37 50.5-52.79 156.07-29.83 605.94s289.16 1074.2 289.16 1074.2c-422.32-578.4-422.37-1560.8-422.37-1560.8-213.73 146.94-519.79 408.18-688.24 564.95-598.37-302.31-331.7-1014.3-182.36-1549.3 131.16-469.91 281.38-907.86 250.85-1232.8-62.4-664.38 30.79-1340.5 267.78-1889.9h-0.03z"/> <path class="fil11" d="m18024 21703s-535.56-53.56-688.57-214.23c0 0 91.88-144.32 172.72-308.99 313.73 10.66 631.24 6.9 951.29-13.51 10.6 44.85 20.63 78.19 29.35 92.97 49.72 84.16 267.77 114.75 279.25 164.48 11.48 49.74-65.04 68.88-306.03 133.9-241 65.03-438.01 145.37-438.01 145.37z"/> <path class="fil11" d="m26641 16302c-595.54 3381.6-3400.2 6403.9-7379.4 5880.4 0 0 315.6-409.32 350.03-598.67s34.43-235.26 34.43-235.26 372.97 22.96 694.29-114.76c321.34-137.71 602.5-413.14 602.5-413.14s-13.98-43.39-36.03-111.27c2220.1-694.62 4330.7-2152.5 5734.2-4407.2z"/> <path class="fil11" d="m11019 15124c-53.04 339.13-63.88 695.75-30.7 1049.1 30.52 324.97-119.69 762.92-250.85 1232.8-149.33 535.02-416.01 1247 182.36 1549.3 168.45-156.77 474.51-418.01 688.24-564.95 0 0 0.05 982.35 422.37 1560.8 0 0-266.21-624.29-289.16-1074.2-22.96-449.87 11.47-555.44 29.83-605.94 3.45-9.46 7.13-39.08 10.85-80.97-495.12-846.97-773.23-1870.9-762.93-3066z"/> <path class="fil9" d="m11767 25963c-53.55-15.31-413.14-84.15-520.25-244.82s-351.94-382.54-451.4-428.45c-99.45-45.9-504.94-114.77-566.15-91.81s543.2-267.78 719.17-290.72c175.97-22.95 290.73 313.69 328.99 520.25 38.24 206.57 489.64 535.56 489.64 535.56z"/> <path class="fil9" d="m13333 19522c-144.33 17.81-369.44 25-378.4 56.95-13.39 47.81 612.04 1400.1 757.4 1468.9 145.37 68.86 367.25 7.65 367.25 7.65s-45.92 198.91 168.31 413.14c214.22 214.23 275.43 283.07 275.43 283.07s-15.09 155.06-37.14 367.46c49.68-113.57 145.5-183.29 285.35-243.23 214.22-91.8 841.59-887.49 765.08-1361.8-76.51-474.35 765.08-2631.9 765.08-2631.9 0 1239.4 198.91 1882.1 428.43 2356.4 229.53 474.34 860.72 714.94 860.72 711.52 0-2.28-73.97 262.77-188.43 456.2-57.23 96.71-141.84 115.31-197.93 194.11-35.23 49.48-80.88 151.06-188.05 238.69-110.67 90.48-118.56 233.75-209.23 308.48-1008.2 830.9-996.56 697.32-2529.1 1273.7-56.69 21.32 66.39-185.55 35.13-267.53-41.21-62.32-136.86-48.79-242.52-53.13-64.83-2.67-139.81-11.43-224.53-29.25-290.72-61.2-765.08-198.91-765.08-198.91s10.13 0 28.07-0.37c-114.29-45.65-238.47-118.47-321.47-198.77-118.6-114.76-359.58-478.18-401.66-524.09-42.08-45.9-164.49-7.65-187.44 3.83-22.96 11.48-84.15 198.92-99.46 306.03-15.3 107.11-248.65 929.57-248.65 929.57s-126.26-76.52-256.32-26.78c-130.06 49.73-378.71 367.23-485.82 623.53s-665.34 612.08-1101.4 826.3-298.37 168.32-306.03-15.3c-7.65-183.62 183.61-504.95 351.93-627.36 168.32-122.42 765.08-436.09 879.84-566.17 114.76-130.06 290.73-535.55 436.09-657.96s15.31-91.8-153.02-84.16c-168.32 7.65-696.21 91.81-1040.5 153.02-344.29 61.2-791.28 306.1-791.28 306.1 547.04-569.98 1713.8-508.78 1943.4-723 229.54-214.22 91.82-413.14-38.23-646.48-130.06-233.34-612.07-160.67-612.07-160.67s26.78-26.77 183.62-61.21c156.84-34.43 527.9 68.86 558.5 7.65s-191.27-187.44-359.59-302.2c-168.32-114.77-420.79 26.77-489.64-84.15-68.85-110.94 578.38-122.41 769.64-153.01s-137.71-673.28-107.11-841.59 168.32 130.06 306.03 428.45c137.71 298.38 321.41 367.23 443.81 229.52 122.41-137.71 0-665.61 0-765.07 0-99.45 7.65 22.95 68.86 191.26 61.2 168.32 107.11 405.5 91.81 642.67-15.31 237.16 153.01 443.74 459.05 688.57 306.03 244.82 627.35-137.71 788.02 99.46 68.45 101.04 170.22 177.08 264.49 231.08-74.02-74.44-145.88-135.22-190.86-177.4-122.41-114.76-351.93-474.35-351.93-474.35s390.18 436.1 619.71 367.24-7.65-374.89-99.46-482c-76.29-89-569.89-1292.5-809.23-1841.8 130-0.07 298.08 2.19 384.46 12.99 39.21 4.9 82.69 10.8 126.19 16.04z"/> <path class="fil10" d="m11234 26908s-2846 1672.7-2855.2 1828.7c-9.19 156.07 394.76 459.04 596.74 358.05 201.99-100.99 2568.9-1722 2568.9-1722s7.79-230.3-152.88-358.83-157.63-106.01-157.63-106.01zm-2641.6 1798.8s270.83 133.12 280.02 215.75c9.19 82.62-91.8 123.95-142.3 68.87-50.5-55.09-188.21-146.9-137.71-284.61zm2561.4-1583.7s130.83-25.26 156.08-11.48-9.19 140.01-9.19 140.01-32.13-82.63-71.16-98.69c-39.01-16.07-75.74-29.84-75.74-29.84zm-300.7 146.93s204.26-39.01 213.45-13.77c9.19 25.25-52.79 128.52-52.79 128.52s9.19-82.62-32.12-94.1c-41.32-11.48-128.53-20.66-128.53-20.66zm-268.55 151.49s252.49-52.79 247.89 0-59.69 146.89-59.69 146.89 9.18-96.4-32.13-117.06c-41.3-20.66-156.07-29.83-156.07-29.83zm-213.46 140s227.24 0 245.59 18.37c18.36 18.37-48.2 151.48-48.2 151.48s-6.88-110.17-36.72-126.24-160.67-43.61-160.67-43.61zm-771.19 465.95s289.19-34.43 300.67-13.78c11.47 20.66-57.38 172.15-57.38 172.15s-48.21-80.33-68.87-98.7c-20.65-18.37-174.43-59.67-174.43-59.67zm-245.6 162.95s252.49-9.18 252.49 22.95-45.91 151.49-45.91 151.49-41.32-121.65-80.33-130.82c-39.02-9.18-126.25-43.61-126.25-43.61zm-298.37 133.12s280.02 18.36 312.15 55.08c32.13 36.73-41.31 224.94-41.31 224.94s-123.95-179.04-156.07-192.8c-32.13-13.77-114.77-87.21-114.77-87.21z"/> <path class="fil10" d="m11957 25969s137.74-214.18 403.99-218.77 472.82 211.16 642.66 509.53c169.85 298.38 192.8 638.07 114.76 743.64-78.03 105.59-284.61 100.99-284.61 100.99s84.4-139.77 24.73-373.89c-59.67-234.11-278.3-634.06-379.29-735.05s-522.24-26.46-522.24-26.46z"/> <path class="fil10" d="m17309 22569s57.01-103.81 164.88-133.64c107.88-29.83 398.01 55.73 416.36 142.93 4.53 21.54-37.81 31.7-51.46 49.63-41.58 54.65-170.25 157.8-170.25 157.8s244.36 28.17 301.73-1.67c27.4-14.25 112.67-21.65 179-84.06 72.49-68.22 125.52-191.96 132.68-208.72 7-16.34 62.74-162.8 34.86-268.55-26.92-102.2-136.82-163.63-170.65-190.68-40.68-32.54-234.23 79.55-405.01 148.41-118.17 47.63-231.72 54.16-250.49 61.66-45.89 18.36-204.61 184.59-181.65 326.9z"/> <path class="fil10" d="m11709 17568c216.98 292.69 288.61 675.24 704.48 644.96 219.2-15.96 533.49-169.49 693.3-288.06 0 0-624.31 268.55-826.29 174.47-46.09-21.49-92.78-51.69-131.9-82.43-186.04-146.21-550.51-821.79-448.77-580.89l9.18 131.95z"/> <path class="fil0" d="m17853 21754 633.49-518.72s55.79 109.46 97.1 95.68c41.32-13.78 97.45 35.96 97.45 35.96s76.79 108.39 49.25 112.98c-27.53 4.59-491.68 113.44-877.29 274.1z"/> <path class="fil0" d="m20405 19468s1987.8-2657.9 2107.1-2731.4c119.35-73.45 477.41-55.09 477.41 64.27s-2368.2 3142.9-2368.2 3142.9l-216.3-475.82z"/> <path class="fil10" d="m10783 19018c13.67-9.9 32.78-6.85 42.68 6.82 9.9 13.66 6.85 32.77-6.82 42.67-57.2 41.38-448.71 709.29-720.15 1224.8-195.36 371.05-372.3 707.1-428.82 787.01-128.78 182.09-234.32 1007.1-234.63 1009.5-2.1 16.7-17.38 28.52-34.07 26.42-16.7-2.11-28.52-17.38-26.42-34.08 0.32-2.41 107.72-842.64 245.16-1037 54.36-76.85 230.38-411.17 424.74-780.32 274.58-521.51 669.66-1196.2 738.34-1245.9z"/> <path class="fil10" d="m10050 21853c16.7-2.3 32.12 9.37 34.43 26.07s-9.37 32.12-26.06 34.42c-2.04 0.28-714.93 98.38-792.01 363.84-12.98 44.76-25.05 89.16-35.16 126.5-45.19 166.65-51.03 188.15-191.75 344.51-61.89 68.77-132.02 197.52-197.1 337.57-103.78 223.4-193.65 473.24-218.65 559.35-15.53 53.51-14.96 73.78-7.57 77.9 8.63 4.82 31.4-2.54 50.52-9.5 15.84-5.74 33.35 2.46 39.09 18.3 5.75 15.85-2.45 33.35-18.3 39.1-31.35 11.41-70.59 22.41-100.96 5.41-31.63-17.67-47.13-59.4-21.36-148.18 25.54-87.99 116.86-342.2 221.76-567.98 67.35-144.94 140.74-279.11 207.14-352.87 130.86-145.4 136.26-165.32 178.12-319.64 8.76-32.29 19.19-70.73 35.65-127.45 88.19-303.77 840.06-407.07 842.21-407.37z"/> <path class="fil10" d="m8582.5 23875c2.71-16.64 18.4-27.93 35.03-25.23 16.64 2.71 27.93 18.39 25.23 35.03-0.26 1.61-95.14 435.62 84.2 803.28 35.64 73.09 65.28 133.03 94.92 193.03 160.98 325.82 326.1 659.99 357.46 824.65 35.16 184.68 204.46 381.96 204.94 382.53 10.96 12.8 9.46 32.08-3.35 43.04-12.8 10.96-32.08 9.46-43.04-3.35-0.51-0.6-180.29-210.08-218.57-410.98-29.76-156.3-193.03-486.71-352.19-808.87-34.8-70.4-69.31-140.22-95.17-193.25-187.87-385.15-89.73-838.22-89.46-839.89z"/> <path class="fil10" d="m11566 25876c15.71 6.14 23.48 23.86 17.33 39.57-6.14 15.71-23.87 23.48-39.57 17.33-0.92-0.35-319.17-122.06-618.13-477.07-16.31-19.37-33.67-37.7-51.97-54.98-131.74-124.43-300-178.15-470.65-171.07-171.92 7.13-346.34 75.74-488.9 195.78-24.81 20.9-48.95 43.7-72.19 68.3-87.1 92.22-161.97 182.33-224.55 264.15-88.36 115.5-152.34 214.7-191.78 280.14-14.11 23.41-25.05 39.67-32.91 51.36 3.86 1.93 8.08 4.14 12.68 6.75 32.61 18.48 76.42 53.69 106.75 118.04 20.74 44.03 35.21 101.66 35.21 176.75 0 25.53 5.7 50.43 16.52 74.1 26.33 57.55 82.78 109.07 161.79 146.69 81.55 38.84 186.44 62.4 306.92 62.4 141.52 0 303.84-32.45 474.46-110.53 15.32-6.99 33.41-0.25 40.41 15.06 6.99 15.32 0.25 33.41-15.07 40.41-179.47 82.13-350.5 116.27-499.8 116.27-129.87 0-243.85-25.8-333.22-68.38-91.94-43.78-158.57-105.81-190.95-176.58-14.57-31.87-22.26-65.32-22.26-99.44 0-65.26-12.02-114.14-29.23-150.68-23.6-50.05-56.93-77.02-81.63-91.03-8.61-4.87-15.59-8.07-20.92-10.51-23.64-10.81-34.87-15.92-32.44-42.67 1.12-12.23 7.11-21.41 18.45-38.25l1.09-1.73c7.61-11.31 18.31-27.17 31.81-49.58 40.13-66.57 105.3-167.6 195.59-285.63 63.71-83.28 139.92-175.01 228.63-268.93 24.31-25.73 50.21-50.13 77.45-73.07 152.97-128.81 340.53-202.47 525.71-210.14 186.43-7.73 370.48 51.18 514.9 187.57 19.41 18.32 38.36 38.39 56.74 60.23 288.61 342.72 592.87 459.04 593.75 459.38z"/> <path class="fil10" d="m9641.5 25670c-11.22-12.54-10.15-31.81 2.39-43.04s31.81-10.15 43.03 2.39c1.23 1.37 426.09 478.97 584.38 540.51 81.24 31.59 139.04 145.05 204.05 272.67 81.42 159.82 175.12 343.74 325.93 387.52 116 33.67 214.12 35.87 297.13 37.73 124.82 2.77 218.5 4.87 296.46 100.83 61.02 75.12 113.77 180.71 147.56 280.35 35.88 105.74 50.61 207.2 32.14 262.62-4.98 14.93-7.54 29.65-7.54 43.7 0 19.65 5.28 37.5 16.24 52.09 11.52 15.34 29.61 27.92 54.78 36.31 21.84 7.28 49.08 11.35 82.03 11.35 140.71 0 267.68-170.43 268.05-170.91 10.16-13.47 29.32-16.14 42.79-5.98 13.46 10.16 16.14 29.33 5.98 42.79-0.42 0.56-145.39 195.3-316.82 195.3-39.19 0-72.88-5.27-101.17-14.7-37.66-12.56-65.63-32.55-84.41-57.58-19.35-25.77-28.67-56.12-28.67-88.68 0-20.09 3.69-41.26 10.89-62.84 14.21-42.64-0.14-129.54-32.14-223.88-31.75-93.61-80.8-192.22-137.05-261.45-60.22-74.13-141.72-75.95-250.31-78.36-86.74-1.94-189.27-4.24-312.9-40.12-176.45-51.23-276.51-247.66-363.47-418.37-59.46-116.71-112.32-220.46-171.54-243.49-172.19-66.96-606.55-555.38-607.8-556.77z"/> <path class="fil10" d="m11719 26824c-5.88-15.78 2.15-33.34 17.93-39.21 15.78-5.88 33.34 2.15 39.22 17.93 0.53 1.44 188.79 506.48 216.83 623.31 1.82 7.59 4.24 14.46 7.16 20.63 9.2 19.45 24.17 30.07 41.98 34.55 21.31 5.37 47.1 3.2 73.41-3.11 24.97-5.99 50.46-15.83 73.48-26.72 76.59-36.27 127.75-155.68 127.89-156.02 6.8-15.45 24.84-22.46 40.29-15.67 15.45 6.8 22.46 24.85 15.67 40.29-0.18 0.39-59.94 140.27-157.78 186.62-26.07 12.35-55.57 23.64-85.43 30.79-35.18 8.44-70.82 11.06-102.33 3.11-34.97-8.81-64.32-29.63-82.39-67.79-4.51-9.54-8.31-20.39-11.23-32.58-27.04-112.7-214.15-614.69-214.68-616.13z"/> <path class="fil10" d="m12095 26657c-4.95-16.11 4.1-33.18 20.21-38.14 16.11-4.95 33.19 4.1 38.14 20.21 0.39 1.27 137.48 444.54 173.96 544.83 29.8 81.96 63.01 126.79 96 146.25 19.86 11.73 39.97 13.59 59.09 8.84 21.18-5.27 42-18.46 60.82-35.72 42.81-39.28 73.33-96.59 76.82-133.39 1.58-16.77 16.48-29.07 33.23-27.49 16.76 1.58 29.07 16.48 27.49 33.23-4.71 49.37-42.94 123.76-96.19 172.61-25.84 23.72-55.63 42.12-87.59 50.07-34.01 8.46-69.67 5.19-104.76-15.53-44.36-26.18-87.09-81.19-122.31-178.07-36.98-101.67-174.52-546.4-174.92-547.69z"/> <path class="fil10" d="m12380 26465c-5.34-15.98 3.28-33.27 19.26-38.61 15.97-5.35 33.26 3.28 38.61 19.25 0.38 1.14 134.19 397.96 152.92 557.06 5.59 47.51 18.31 84.04 35.56 109.27 10.09 14.75 21.65 25.35 34.01 31.64 11.45 5.83 23.93 8.04 36.82 6.53 13.8-1.62 28.47-7.5 43.4-17.71 37.33-25.53 68.54-80.59 87.93-144.22 20.25-66.42 26.98-140.82 14.18-200.64-25.05-116.9-166.93-408.9-244.61-568.79l-14.67-30.2c-35.05-72.29-60.94-117.95-91.87-146.3l-1.39-1.36c-28.92-25.81-65.29-38.39-122.25-46.53-45.55-6.49-139.37-3.18-245.7 0.59-184.53 6.52-405.67 14.35-500.88-25.59-15.58-6.53-22.91-24.47-16.38-40.04 6.53-15.59 24.47-22.92 40.04-16.38 83.21 34.89 296.81 27.33 475.07 21.04 109.51-3.88 206.13-7.3 256.46-0.12 69.52 9.93 115.23 26.55 154.5 61.84l1.89 1.6c37.89 34.74 67.12 85.53 105.51 164.71l14.67 30.2c78.82 162.23 222.78 458.51 249.38 582.68 14.96 69.79 7.45 155.38-15.6 230.99-23.2 76.04-62.69 143.36-111.84 176.98-23.29 15.93-47.28 25.21-70.91 27.98-25.01 2.93-49.21-1.38-71.51-12.75-21.36-10.88-40.64-28.21-56.72-51.72-22.6-33.03-39.03-78.89-45.84-136.75-18-153.03-149.68-543.52-150.06-544.64z"/> <path class="fil10" d="m12233 26224c-14.52-8.51-19.39-27.2-10.88-41.72 8.51-14.53 27.2-19.39 41.73-10.88 0.27 0.16 99.8 57.72 111.22 131.92 2.51 16.7-9.01 32.28-25.7 34.79-16.7 2.51-32.28-9-34.79-25.7-6.95-45.14-81.36-88.29-81.57-88.41z"/> <path class="fil10" d="m11930 26416c-6.26-15.65 1.34-33.42 16.98-39.69 15.65-6.26 33.42 1.34 39.69 16.98l27.54 68.86c6.26 15.64-1.34 33.42-16.98 39.68-15.65 6.27-33.42-1.33-39.69-16.98l-27.54-68.85z"/> <path class="fil10" d="m11971 20287c-5.68-15.84 2.58-33.29 18.42-38.97 15.84-5.67 33.3 2.58 38.97 18.42 0.5 1.39 176.96 484.27 120.92 913.96-53.07 406.86 87.44 640.99 273.8 951.53l6.74 11.22c95.53 159.23 193.19 304.65 300.65 424.55 106.22 118.53 222.19 212.32 355.45 270.07 271.36 117.58 999.9 217.78 1002 218.07 16.71 2.3 28.37 17.73 26.07 34.42-2.31 16.71-17.74 28.37-34.43 26.07-2.12-0.3-738.32-101.52-1017.8-222.62-142.15-61.59-264.94-160.62-376.73-285.36-110.59-123.4-210.36-271.81-307.59-433.89l-6.74-11.22c-192.56-320.88-337.75-562.82-281.93-990.75 54.12-414.94-117.33-884.15-117.81-885.51z"/> <path class="fil10" d="m11283 20343c-6.67-15.52 0.51-33.51 16.02-40.17 15.52-6.67 33.51 0.51 40.17 16.02 0.87 2.02 301.71 703.95 529.03 1013.1 229.29 311.84 411.78 551.08 412.3 551.77 10.23 13.41 7.66 32.57-5.74 42.8-13.41 10.23-32.57 7.66-42.8-5.74-0.52-0.69-183.27-240.29-413.01-552.73-231.7-315.12-535.1-1023-535.97-1025.1z"/> <path class="fil10" d="m10585 21371c-16.24 4.49-33.04-5.04-37.53-21.28-4.49-16.25 5.04-33.05 21.28-37.54 1.26-0.34 437.51-123.64 761.97 143.57 148.72 122.48 339.72 239.85 517.03 328.61 188.41 94.3 359.72 155.87 445.6 155.87 16.91 0 30.6 13.71 30.6 30.6 0 16.9-13.7 30.6-30.6 30.6-94.77 0-276.35-64.21-472.86-162.57-181.04-90.61-376.26-210.63-528.51-336.01-299.82-246.91-705.81-132.17-706.98-131.85z"/> <path class="fil10" d="m10695 21793c-16.37 4.03-32.92-5.98-36.94-22.36-4.03-16.37 5.99-32.91 22.36-36.94 1.36-0.34 473.61-123.14 834.47 171.24 338.28 275.96 866.09 193.8 867.61 193.57 16.71-2.44 32.24 9.13 34.67 25.82 2.44 16.71-9.12 32.23-25.82 34.67-1.59 0.24-555.51 86.51-914.96-206.73-336.88-274.83-780.1-159.59-781.38-159.28z"/> <path class="fil10" d="m9398 23351c-14.85 7.99-33.38 2.42-41.37-12.43-7.99-14.86-2.42-33.38 12.44-41.37 2.22-1.19 768.47-416.66 1602.5-425.91 808.29-8.98 1213-743.71 1214.2-745.82 8.25-14.72 26.88-19.97 41.6-11.71 14.72 8.25 19.97 26.87 11.71 41.6-1.23 2.19-422.73 767.52-1267 776.89-818.49 9.1-1571.9 417.58-1574.1 418.75z"/> <path class="fil10" d="m12126 22222c3.77-16.44 20.16-26.71 36.59-22.96 16.44 3.77 26.71 20.16 22.96 36.59-0.93 4.05-321.58 1411-479.48 1717.5-85.54 166.05-33.68 694.76 15.34 1194.4 30.85 314.63 60.61 617.88 54.15 817-0.52 16.83-14.61 30.05-31.43 29.53-16.83-0.52-30.05-14.61-29.53-31.44 6.33-195.23-23.24-496.64-53.91-809.35-49.85-508.22-102.62-1046.1-8.89-1228.1 154.23-299.37 473.29-1699.2 474.21-1703.2z"/> <path class="fil10" d="m11783 22766c16.57-3.1 32.53 7.82 35.62 24.39 3.1 16.57-7.81 32.53-24.39 35.62-1.55 0.29-542.78 97.89-711.28 576.8-77.08 219.1-318.61 357.14-580.58 506.85-348.39 199.1-734.35 419.69-785.83 872.77-1.85 16.76-16.95 28.86-33.71 27.01s-28.85-16.96-27.01-33.71c55.01-484.12 455.08-712.77 816.2-919.14 251.76-143.89 483.9-276.57 553.31-473.88 180.35-512.62 756-616.4 757.66-616.71z"/> <path class="fil10" d="m11647 23283c15.05-7.59 33.41-1.54 41 13.51 7.6 15.06 1.55 33.42-13.51 41.01-1.01 0.51-355.46 177.76-443.5 477.12-4.75 16.17-21.73 25.43-37.89 20.68-16.18-4.74-25.43-21.72-20.69-37.89 95.56-324.94 473.5-513.87 474.59-514.42z"/> <path class="fil10" d="m12186 18150c-6.26-15.65 66.37-33.42 82-39.69 15.65-6.26 33.42 1.34 39.69 16.98 2.99 7.47 1042.4 2599.7 1280.4 3029.8 233.78 422.63 929.65 738.93 931.65 739.85 15.31 6.99 22.06 25.1 15.06 40.41-6.99 15.31-25.1 22.05-40.4 15.06-2.06-0.94-716.26-325.53-959.86-765.9-239.48-432.91-1345.5-3029-1348.5-3036.5z"/> <path class="fil10" d="m12360 20352c-8.71-14.45-4.05-33.25 10.4-41.96 14.46-8.71 33.25-4.05 41.96 10.41 2.16 3.57 750.87 1245.3 1051.2 1545.7 298.94 298.94 974.41 584.18 976.35 585.01 15.52 6.53 22.81 24.42 16.27 39.93-6.53 15.51-24.42 22.8-39.93 16.27-1.97-0.84-688.97-290.95-995.96-597.93-305.54-305.54-1058.2-1553.8-1060.3-1557.4z"/> <path class="fil10" d="m14103 17069c-1.91-16.76 10.13-31.91 26.89-33.82s83.56-5.17 85.47 11.59c0.46 3.99 109.84 1400.3 201.99 2248.2 51.96 478.1 106.9 1109.3 131.53 1651 18.96 416.93 19.9 781.18-12.36 982.78-73.13 457.01-146.46 1107.7-146.67 1109.6-1.91 16.77-17.07 28.8-33.83 26.89s-28.79-17.08-26.88-33.83c0.21-1.87 73.37-651.14 147.13-1112.2 31.53-197.14 30.44-557.23 11.65-970.58-24.54-539.72-79.38-1169.7-131.29-1647.2-91.44-841.36-253.16-2228.4-253.63-2232.4z"/> <path class="fil10" d="m14602 17142c-5.67-15.84 2.58-33.3 18.42-38.97 15.85-5.68 33.3 2.58 38.98 18.42 0.6 1.66 207.55 572.28 327.29 1263.1 45.05 259.91 93.3 870.41 135.71 1542.8 70.31 1114.5 124.65 2401.2 121.78 2539.3-4.54 217.98 18.19 426.95 18.25 427.55 1.85 16.76-10.26 31.86-27.01 33.71-16.76 1.85-31.86-10.26-33.71-27.01-0.06-0.61-23.12-212.75-18.49-435.44 2.85-136.91-51.52-1420.4-121.78-2534.2-42.28-670.29-90.3-1278.5-134.99-1536.3-118.96-686.29-323.85-1251.2-324.44-1252.8z"/> <path class="fil10" d="m14673 17101c-4.35-16.3 5.34-33.06 21.64-37.42 16.31-4.35 33.07 5.34 37.42 21.64 0.61 2.28 212.43 792.29 322.84 1307.5 45.31 211.48 88.96 617.09 124.72 1046.1 51.77 621.22 87.18 1292.7 87.18 1494.2 0 341.12 73.13 1922.1 73.33 1926.7 0.72 16.83-12.34 31.08-29.16 31.8-16.83 0.72-31.08-12.34-31.8-29.17-0.21-4.56-73.58-1591-73.58-1929.3 0-200.52-35.31-869.65-86.93-1489.1-35.58-427.11-78.88-830.14-123.52-1038.5-109.92-512.97-321.52-1302.2-322.13-1304.4z"/> <path class="fil10" d="m15227 17018c-16.24 4.61-33.16-4.8-37.78-21.04-4.61-16.25 4.8-33.16 21.04-37.78 2.17-0.62 755.26-216.59 1253.9-114.08 309.82 63.7 806.77 235.77 1250.2 389.28 262.09 90.75 505.38 175 680.32 226.45 466.81 137.29 702.36 187.73 703.04 187.86 16.51 3.5 27.05 19.73 23.56 36.22-3.5 16.5-19.72 27.04-36.21 23.56-0.7-0.15-237.97-50.95-707.59-189.07-174.16-51.22-419.1-136.03-682.96-227.4-441.44-152.84-936.23-324.17-1242.5-387.13-483.69-99.44-1222.8 112.52-1225 113.13z"/> <path class="fil10" d="m16868 17849c-0.52-16.83 12.7-30.92 29.53-31.44s30.91 12.71 31.43 29.53c0.04 1.47 18.26 511.05 137.11 1068.8 90.7 425.63 304.66 943.34 441.27 1273.9 42.68 103.28 77.94 188.57 99.2 245.98 44.3 119.63 55.66 251.42 44.59 376.29l0.12 0.01c-12.68 143.18-55.14 277.88-111.25 374.82-24.49 42.29-47.51 89.52-69.51 134.66-20.91 42.91-40.93 84-61.39 119.08l-1.08 1.71c-52.28 89.02-108.06 140.33-185.19 95.36-112.11-65.41-214.94-149.53-215.22-149.76-13.01-10.7-14.88-29.92-4.18-42.93 10.69-13 29.91-14.88 42.92-4.18 0.28 0.24 98.88 80.9 207.08 144.02 35.11 20.48 67.78-15.25 101.94-73.45l0.88-1.63c19.41-33.25 38.89-73.27 59.24-115.01 22.15-45.46 45.33-93.01 71.66-138.48 51.9-89.65 91.24-215.17 103.13-349.47l0.13 0.01c10.31-116.43-0.19-239.06-41.27-350-21.97-59.33-56.46-142.78-98.22-243.83-137.51-332.71-352.85-853.78-444.62-1284.4-119.84-562.32-138.26-1078-138.31-1079.5z"/> <path class="fil10" d="m17189 21494c3.43-16.51 19.61-27.09 36.1-23.67 16.5 3.42 27.09 19.61 23.67 36.1-21.51 102.49-56.4 191.08-116.39 265.38-60.1 74.46-144.65 133.69-265.11 177.06-228.65 82.3-511.76 201.04-512.58 201.38-15.51 6.53-33.39-0.76-39.93-16.27-6.53-15.52 0.76-33.4 16.27-39.93 0.82-0.34 285.29-119.64 515.69-202.57 109.05-39.25 184.92-92.05 238.08-157.92 53.29-66.01 84.59-146.13 104.2-239.56z"/> <path class="fil10" d="m16785 21916c12.48-11.29 31.75-10.33 43.04 2.15 11.29 12.47 10.33 31.75-2.15 43.04-1.54 1.4-539.11 488.9-808.77 628.39-268.24 138.75-459.32 229.75-459.87 230.01-15.25 7.26-33.5 0.78-40.76-14.46-7.27-15.25-0.78-33.5 14.46-40.76 0.56-0.26 193.98-92.37 458.21-229.06 262.81-135.94 794.31-617.93 795.84-619.31z"/> <path class="fil10" d="m18409 18876c-7.2 15.25-25.41 21.78-40.64 14.59-15.25-7.19-21.78-25.4-14.59-40.64 1.53-3.24 531.64-1131.4 727.52-1199.9 26.01-9.1 52.12-10.74 77.86-6.19 62.95 11.1 122.98 59.46 173.58 124.45 48.36 62.11 88.87 140.12 114.85 214.37 26.06 74.48 37.83 146.45 28.91 196.99-16.65 94.33-83.08 229.02-229.2 365.26-107.86 100.58-259.9 202.83-468.48 291.07-15.52 6.53-33.4-0.75-39.93-16.27-6.53-15.51 0.75-33.39 16.27-39.93 201.07-85.06 347.21-183.21 450.54-279.59 134.93-125.82 195.74-247.19 210.54-331.06 7.13-40.36-3.49-101.32-26.27-166.4-23.96-68.49-61.12-140.18-105.29-196.91-41.92-53.84-89.39-93.5-136.02-101.74-15.87-2.8-31.74-1.87-47.26 3.56-171.34 59.96-690.9 1165.2-692.38 1168.3z"/> <path class="fil10" d="m19163 17707c-16.57-3.3-27.32-19.42-24.03-35.98 3.3-16.57 19.42-27.32 35.98-24.04 239.82 47.97 379.86 293.9 468.4 449.43 26.53 46.61 48.17 84.6 64.65 103.4 52.33 59.71 118.68 156.12 193.23 276.14 84.51 136.07 180.09 303.13 278.05 481.76 162.31 295.96 349.59 689 501.26 1047.7 140.85 333.02 251.05 636.89 282.37 806.89 3.03 16.57-7.94 32.47-24.51 35.5-16.58 3.04-32.47-7.93-35.51-24.51-30.49-165.55-139.27-464.89-278.55-794.22-150.62-356.17-336.9-747.02-498.63-1041.9-97.43-177.68-192.44-343.76-276.38-478.89-73.14-117.73-137.52-211.51-187.25-268.24-20.6-23.52-43.6-63.91-71.81-113.46-83.15-146.05-214.65-377.01-427.29-419.53z"/> <path class="fil10" d="m18789 21409c16.84 0.79 29.84 15.09 29.05 31.91-0.79 16.83-15.09 29.84-31.91 29.05-20.1-0.96-63.85-21.29-100.51-50.26-20.84-16.47-40.46-36.17-53.71-57.31-15.66-24.99-22.77-52.02-14.62-79.11 4.7-15.63 14.27-30.37 29.87-43.59 69.94-59.23 256.3-111.28 480.87-146.66 230.66-36.33 503.8-56.04 731.8-48.32 533.81 18.1 1057.8-252.94 1059.3-253.71 14.98-7.66 33.34-1.72 41 13.27 5.64 11.03 3.91 23.9-3.38 32.97-1.31 1.71-464.11 592.02-1306.4 535.87-16.83-1.12-29.56-15.68-28.45-32.51 1.12-16.83 15.69-29.56 32.51-28.44 578.8 38.58 970.29-238.97 1147.2-401.28-197 81.25-567.64 207.56-943.73 194.81-224.4-7.59-493.36 11.82-720.57 47.61-214.33 33.76-389.56 81.22-450.73 133.02-5.97 5.06-9.39 9.9-10.76 14.43-2.49 8.3 0.96 18.64 7.7 29.38 9.16 14.62 23.84 29.12 39.82 41.76 27.4 21.67 55.46 36.63 65.61 37.11z"/> <path class="fil10" d="m17536 20347c-16.17 4.68-33.08-4.63-37.77-20.81-4.68-16.17 4.64-33.08 20.81-37.77 0.92-0.26 323.32-91.76 419.87-460.45 52.25-199.5 140.46-330.44 252.61-429.48 111.1-98.08 243.74-163.26 387.94-233.03 67.13-32.48 149.94-87.5 241.73-148.47 296.47-196.95 683.67-454.14 999.2-263.35 412.77 249.58 308.42 837.43 308.13 839.13-2.77 16.64-18.51 27.86-35.15 25.11-16.64-2.77-27.86-18.52-25.11-35.15 0.26-1.57 97.33-548.91-279.44-776.72-282.5-170.82-651.44 74.26-933.93 261.91-93.57 62.15-177.99 118.24-248.9 152.55-140.37 67.92-269.43 131.3-374.08 223.71-103.58 91.46-185.22 213.04-233.96 399.11-105.41 402.49-460.93 503.42-461.96 503.72z"/> <path class="fil10" d="m18964 19733c11.29 12.54 10.28 31.87-2.26 43.16-12.54 11.28-31.87 10.27-43.16-2.27-0.61-0.68-211.88-238.31-464.83-247.03-247.14-8.52-499.2 468.97-499.92 470.34-7.85 14.93-26.32 20.65-41.25 12.8-14.92-7.85-20.65-26.32-12.8-41.25 0.78-1.45 270.55-512.68 555.88-502.85 279.52 9.63 507.69 266.38 508.34 267.11z"/> <path class="fil10" d="m18331 19704c16.71-2.18 32.02 9.6 34.2 26.29 2.18 16.71-9.61 32.02-26.3 34.2-0.87 0.11-303.51 37.11-353.16 219.18-4.42 16.24-21.18 25.81-37.41 21.4-16.24-4.41-25.81-21.17-21.41-37.41 60.51-221.88 403.1-263.54 404.08-263.66z"/> <path class="fil10" d="m18680 21335c16.11 4.89 25.21 21.92 20.33 38.02-4.89 16.11-21.92 25.21-38.02 20.33-0.45-0.14-162.83-46.92-189.89-109.78-17.25-40.09-38.44-98.61-58.87-179.43-20.19-79.9-39.69-182-53.95-310.26-22.88-205.87-59.53-403.65-99.55-552.94-37.53-139.95-74.46-233.55-101.07-243.52-64.72-24.27-224.8 14.74-225.25 14.85-16.37 4.09-32.97-5.87-37.05-22.25-4.09-16.37 5.87-32.97 22.24-37.05 0.51-0.12 179.19-43.51 261.35-12.71 46.47 17.43 96.34 126.43 138.84 284.89 40.71 151.85 77.98 352.9 101.22 562.03 13.88 124.96 32.87 224.38 52.52 302.14 19.42 76.81 39.47 132.23 55.77 170.1 15.32 35.58 151.02 75.48 151.39 75.59z"/> <path class="fil10" d="m16534 17541c1.98 16.76-10.02 31.96-26.77 33.94-16.77 1.98-31.97-10.02-33.94-26.77-0.11-0.9-41.96-315.15 310.21-263.37 166.05 24.43 337.42 178 471.93 395.69 131.19 212.32 228.63 486.88 251.87 761.31 1.38 16.83-11.14 31.61-27.97 32.99s-31.6-11.15-32.98-27.97c-22.45-264.86-116.37-529.65-242.8-734.29-125.39-202.93-281.44-345.54-428.89-367.24-272.12-40.01-240.72 195.03-240.64 195.7z"/> <path class="fil10" d="m18115 17630c-11.42-12.34-10.67-31.61 1.67-43.03 12.35-11.42 31.62-10.67 43.04 1.67 0.78 0.84 273.83 292.71 292.74 671.1 18.54 370.94-15.77 556.13-15.86 556.66-2.9 16.65-18.75 27.77-35.39 24.88-16.64-2.9-27.76-18.75-24.87-35.38 0.08-0.52 33.31-179.78 15.15-543.29-17.8-356.06-275.76-631.81-276.49-632.6z"/> <path class="fil10" d="m19028 21122c7.99-14.85 26.52-20.42 41.37-12.43 14.86 7.99 20.43 26.51 12.43 41.37-0.54 1.01-190.5 356.7-472.63 390.75-109.93 13.27-281.28 61.88-450.11 118.16-233.48 77.82-460.77 169.66-515.22 203.35-28.77 17.82-64.13 33.95-100.93 50.73-84.42 38.5-177.45 80.95-187.95 144.08-2.02 12.17-1.81 24.28 0.39 35.98 5.19 27.69 21.35 53.76 45.07 74.56 24.69 21.64 57.46 37.46 94.73 43.66 23.99 4 49.83 3.99 76.53-1.02 55.57-10.42 152.42-56.1 255.67-104.8 158.96-74.98 332.48-156.82 421.68-138.37 16.5 3.37 27.14 19.49 23.79 35.98-3.37 16.51-19.49 27.15-35.98 23.79-69.31-14.33-233.24 62.99-383.43 133.83-106.89 50.42-207.16 97.72-270.48 109.59-34.06 6.38-67.09 6.38-97.82 1.26-48.69-8.11-91.9-29.14-124.85-58.01-33.91-29.71-57.18-67.88-64.93-109.22-3.5-18.67-3.85-37.93-0.63-57.27 15.83-95.06 124.37-144.58 222.87-189.5 35-15.98 68.65-31.32 94.23-47.16 57.32-35.47 290.55-130.13 528.13-209.32 172.59-57.53 348.26-107.28 462.08-121.02 250.35-30.21 425.5-358.04 426-358.98z"/> <path class="fil10" d="m18102 22046c-15.91-5.55-24.31-22.95-18.76-38.85 5.54-15.92 22.95-24.32 38.85-18.77 0.62 0.21 218.96 73.88 234.17 286.93 5.92 82.77-18.4 167.76-54.39 244.23-53.09 112.83-132.48 208.22-175.63 248.5-78.52 73.29-459.16 47.95-460.24 47.88-16.83-1.06-29.62-15.58-28.56-32.4 1.06-16.83 15.57-29.62 32.4-28.56 1 0.06 355.62 23.61 414.79-31.62 39.58-36.94 112.66-124.96 162.02-229.85 32.02-68.06 53.72-142.79 48.64-213.87-12.33-172.53-192.78-233.45-193.3-233.62z"/> <path class="fil10" d="m17518 22946c-16.71-2.51-28.21-18.1-25.7-34.8 2.5-16.7 18.1-28.2 34.79-25.69 1.36 0.2 474.36 73.81 650.87 91.9 48.86 5.01 97.31 17.79 144.64 30.24 119.11 31.37 230.34 60.68 287.91-71.75 46.36-106.64 109.01-242.34 194.04-373.39 85.8-132.23 194.29-259.4 331.68-347.05 139.42-88.94 287.25-272.8 384.73-499.84 82.61-192.42 128.54-415.25 101.88-636.8-1.98-16.77 10.02-31.97 26.77-33.95 16.76-1.97 31.96 10.03 33.94 26.78 28.03 232.92-19.96 466.53-106.41 667.88-102.29 238.24-259.2 432.3-408.16 527.33-128.84 82.2-231.53 202.93-313.27 328.9-82.51 127.16-143.81 260.01-189.26 364.53-78.43 180.43-214.12 144.69-359.41 106.42-45.15-11.89-91.37-24.09-135.3-28.57-181.51-18.61-652.4-91.93-653.75-92.13z"/> <path class="fil10" d="m13075 26392c-13.66 9.9-32.78 6.85-42.68-6.82s-6.84-32.78 6.82-42.68c10.62-7.7 3692.4-2676.5 4829-3785.7 12.08-11.75 31.41-11.48 43.16 0.6 11.74 12.08 11.47 31.41-0.6 43.15-1140.2 1112.6-4825.1 3783.7-4835.7 3791.4z"/> <path class="fil10" d="m12786 25962c-13.74 9.83-32.85 6.67-42.68-7.06-9.83-13.74-6.67-32.85 7.06-42.68 10.13-7.25 3519.5-2519.5 4748.6-3537.7 13.01-10.76 32.28-8.94 43.04 4.07 10.76 13 8.94 32.27-4.07 43.03-1231.3 1020-4741.8 3533.1-4752 3540.3z"/> <path class="fil10" d="m12828 19518c-16.83 0-30.48-13.66-30.48-30.48 0-16.84 13.66-30.48 30.48-30.48 5.28-0.02 441.93-1.3 526.15-1.3 16.9 0 30.6 13.71 30.6 30.61s-13.71 30.6-30.6 30.6c-117.75 0-521.86 1.04-526.15 1.05z"/> <path class="fil10" d="m14357 19176c13.07-10.63 32.29-8.65 42.92 4.42 10.63 13.08 8.65 32.3-4.43 42.93-0.69 0.56-245.57 197.68-396.42 258.97-15.64 6.33-33.47-1.22-39.8-16.86-6.34-15.65 1.21-33.47 16.86-39.81 142.91-58.07 380.2-249.1 380.88-249.65z"/> <path class="fil10" d="m13580 21221c-16.38 4.09-32.97-5.87-37.06-22.25-4.09-16.37 5.87-32.97 22.25-37.05l946.5-238.71c16.37-4.09 32.97 5.87 37.05 22.24 4.09 16.38-5.87 32.97-22.24 37.06l-946.5 238.71z"/> <path class="fil2" d="m10812 13660c53.47-9.96 104.92 25.31 114.89 78.77 10 53.49-25.28 104.92-78.74 114.91-53.48 9.97-104.92-25.31-114.91-78.76-9.97-53.47 25.29-104.92 78.76-114.92z"/> <path class="fil12" d="m22183 13970c-217.01 146.8-486.98 216.86-766.87 177.61-600.1-84.15-1018.4-638.87-934.2-1239 62-442.05 379.35-785.4 782.07-901.96-248.27 167.96-427.19 436.36-472.1 756.58-84.16 600.1 334.09 1154.8 934.19 1239 158.05 22.17 312.93 9.45 456.91-32.22z"/> <path class="fil1" d="m22183 13970c-16.16 10.94-32.63 21.45-49.37 31.51-155.6 51.91-325.26 69.57-498.72 45.24-600.1-84.16-1018.4-638.87-934.19-1239 47.83-341.05 247.66-623.31 521.43-788.04 13.85-4.62 27.79-8.99 41.86-13.07-248.28 167.95-427.2 436.37-472.11 756.58-84.16 600.1 334.09 1154.8 934.2 1239 158.04 22.17 312.93 9.44 456.9-32.23z"/> <path class="fil2" d="m15911 12764c51.66-9.63 101.38 24.46 111.02 76.12 9.65 51.69-24.44 101.39-76.1 111.05-51.69 9.63-101.39-24.46-111.04-76.12-9.64-51.67 24.43-101.39 76.12-111.05z"/> <polygon class="fil2" points="18034 10564 18079 10846 18361 10891 18079 10937 18034 11218 17988 10937 17707 10891 17988 10846"/> <path class="fil2" d="m26767 12499c70.88-13.21 139.09 33.55 152.31 104.43 13.24 70.91-33.51 139.08-104.39 152.33-70.91 13.21-139.09-33.54-152.34-104.42-13.21-70.88 33.51-139.09 104.42-152.34z"/> <path class="fil2" d="m27038 12064c27.51-5.13 54 13.03 59.13 40.54 5.15 27.52-13.01 54-40.52 59.15-27.53 5.13-54.01-13.03-59.15-40.54-5.13-27.52 13.01-54.01 40.54-59.15z"/> <path class="fil2" d="m27421 13182c27.51-5.14 54 13.02 59.13 40.54 5.15 27.52-13.01 54-40.53 59.14-27.52 5.13-54-13.02-59.14-40.54-5.13-27.51 13.01-54 40.54-59.14z"/> <polygon class="fil2" points="26308 10262 26373 10662 26773 10727 26373 10791 26308 11191 26243 10791 25843 10727 26243 10662"/> <path class="fil2" d="m22617 8580.4c53.47-9.97 104.92 25.31 114.89 78.77 10 53.48-25.28 104.92-78.74 114.91-53.48 9.97-104.92-25.31-114.91-78.76-9.97-53.47 25.29-104.92 78.76-114.92z"/> <path class="fil0" d="m19252 13110s-607.11 492.17-580.19 511.32c26.93 19.15 22.39 70.41 580.19-511.32z"/> <polygon class="fil0" points="21583 11616 21597 11714 21696 11730 21597 11744 21582 11843 21567 11744 21469 11729 21567 11714"/> <path class="fil0" d="m16208 14920c63.35-11.82 124.29 29.95 136.09 93.3 11.82 63.33-29.95 124.27-93.28 136.09-63.34 11.82-124.28-29.95-136.09-93.3-11.84-63.33 29.94-124.27 93.28-136.09z"/> <path class="fil0" d="m19899 13442c13.25-2.48 25.99 6.26 28.47 19.51 2.46 13.26-6.27 25.99-19.53 28.47-13.24 2.46-25.99-6.27-28.45-19.52-2.48-13.25 6.26-26 19.51-28.46z"/> <path class="fil0" d="m24302 11665c50.3-9.38 98.68 23.78 108.08 74.09 9.38 50.28-23.8 98.68-74.09 108.06-50.3 9.38-98.68-23.78-108.06-74.08-9.4-50.29 23.78-98.68 74.07-108.07z"/> <path class="fil0" d="m24033 14132c23.88-4.45 46.84 11.3 51.3 35.17 4.45 23.88-11.3 46.84-35.15 51.29-23.89 4.46-46.86-11.29-51.3-35.16-4.46-23.88 11.28-46.84 35.15-51.3z"/> <path class="fil0" d="m25277 13964c23.88-4.45 46.84 11.3 51.3 35.17 4.45 23.88-11.3 46.84-35.15 51.29-23.88 4.46-46.86-11.29-51.31-35.16-4.45-23.88 11.29-46.84 35.16-51.3z"/> <path class="fil0" d="m18583 14654c35.86-6.69 70.38 16.98 77.07 52.84 6.7 35.87-16.97 70.39-52.83 77.08-35.88 6.69-70.4-16.96-77.08-52.84-6.69-35.86 16.96-70.38 52.84-77.08z"/> <path class="fil0" d="m23491 13302c32.14-6.01 63.09 15.19 69.08 47.34 6.01 32.14-15.19 63.09-47.35 69.08-32.15 6.01-63.08-15.21-69.07-47.35-6.01-32.15 15.19-63.08 47.34-69.07z"/> <path class="fil0" d="m15164 13712c44.02-8.22 86.38 20.83 94.59 64.84 8.22 44.02-20.82 86.38-64.84 94.59-44.02 8.22-86.37-20.82-94.59-64.84s20.82-86.36 64.84-94.59z"/> <path class="fil0" d="m19178 12010c26.28-4.91 51.57 12.44 56.48 38.71 4.92 26.29-12.43 51.59-38.71 56.5-26.29 4.9-51.58-12.43-56.49-38.73-4.9-26.27 12.43-51.58 38.72-56.48z"/> <path class="fil0" d="m22584 11092c26.27-4.92 51.58 12.43 56.48 38.71 4.91 26.29-12.43 51.58-38.71 56.49-26.29 4.9-51.59-12.44-56.5-38.72-4.9-26.28 12.45-51.58 38.73-56.48z"/> <path class="fil0" d="m23799 11247s-974.65 957.84-1008.1 902.03c-33.47-55.8 937.45-872.28 1008.1-902.03z"/> <path class="fil0" d="m22149 12978c26.29-4.9 51.58 12.44 56.49 38.72 4.9 26.28-12.43 51.59-38.72 56.48-26.28 4.92-51.57-12.43-56.48-38.71-4.92-26.29 12.43-51.58 38.71-56.49z"/> <path class="fil0" d="m22345 9692.4c26.27-4.91 51.58 12.43 56.48 38.71 4.91 26.28-12.43 51.58-38.71 56.48-26.29 4.91-51.59-12.43-56.5-38.71-4.9-26.28 12.43-51.58 38.73-56.48z"/> <path class="fil0" d="m24567 8981.3c27.51-5.13 54 13.03 59.13 40.54 5.15 27.53-13.01 54.01-40.53 59.15-27.52 5.13-54-13.03-59.14-40.54-5.13-27.51 13.01-54 40.54-59.15z"/> <path class="fil0" d="m20772 15206c17.73-3.32 34.8 8.38 38.1 26.1 3.3 17.75-8.39 34.8-26.12 38.12-17.73 3.3-34.79-8.39-38.1-26.13-3.32-17.72 8.39-34.79 26.12-38.09z"/> <path class="fil0" d="m20256 16821c32.14-5.99 63.09 15.21 69.08 47.35 6.01 32.15-15.21 63.09-47.35 69.09-32.15 5.99-63.08-15.21-69.07-47.35-6.01-32.15 15.19-63.08 47.34-69.09z"/> <path class="fil0" d="m22469 21349c23.87-4.46 46.84 11.29 51.3 35.16 4.46 23.88-11.29 46.84-35.16 51.3-23.88 4.46-46.84-11.29-51.3-35.17-4.46-23.86 11.29-46.84 35.16-51.29z"/> <path class="fil0" d="m21403 21049c20.29-3.79 39.81 9.59 43.59 29.88 3.79 20.29-9.59 39.8-29.88 43.59s-39.8-9.6-43.59-29.88c-3.79-20.29 9.58-39.81 29.88-43.59z"/> <path class="fil0" d="m22602 18907c23.88-4.46 46.84 11.28 51.3 35.15 4.45 23.88-11.28 46.84-35.15 51.3-23.88 4.45-46.84-11.28-51.3-35.15-4.46-23.88 11.28-46.84 35.15-51.3z"/> <path class="fil0" d="m20595 18046c23.88-4.46 46.84 11.29 51.29 35.16 4.46 23.87-11.29 46.85-35.14 51.3-23.89 4.46-46.86-11.29-51.32-35.16-4.44-23.88 11.3-46.84 35.17-51.3z"/> <polygon class="fil0" points="16948 16116 16963 16217 17064 16233 16962 16248 16946 16348 16932 16247 16831 16231 16932 16217"/> <path class="fil0" d="m22722 15207c35.86-6.7 70.38 16.96 77.08 52.83 6.69 35.88-16.97 70.4-52.84 77.08-35.87 6.69-70.39-16.97-77.07-52.84-6.7-35.87 16.96-70.39 52.83-77.07z"/> <polygon class="fil0" points="21360 15954 21398 16191 21635 16229 21398 16268 21360 16505 21321 16268 21084 16229 21321 16191"/> <path class="fil0" d="m24783 15111c23.88-4.46 46.84 11.29 51.3 35.16 4.46 23.88-11.29 46.84-35.15 51.3-23.88 4.46-46.86-11.29-51.3-35.16-4.46-23.88 11.28-46.84 35.15-51.3z"/> <path class="fil0" d="m26073 15433c23.88-4.46 46.84 11.29 51.3 35.16 4.45 23.88-11.3 46.84-35.15 51.3-23.88 4.46-46.86-11.29-51.31-35.16-4.45-23.88 11.29-46.84 35.16-51.3z"/> <path class="fil0" d="m24641 16032s-681.8 625.17-703.14 586.63c-21.34-38.53 654.63-568.15 703.14-586.63z"/> <path class="fil0" d="m25077 17080c35.88-6.7 70.4 16.97 77.08 52.83 6.69 35.88-16.96 70.4-52.84 77.08-35.86 6.69-70.38-16.96-77.08-52.84-6.69-35.86 16.98-70.38 52.84-77.07z"/> <path class="fil0" d="m13374 13926c44.02-8.22 86.37 20.83 94.59 64.84 8.22 44.02-20.82 86.37-64.84 94.59s-86.38-20.82-94.59-64.84c-8.22-44.02 20.82-86.36 64.84-94.59z"/> <path class="fil0" d="m12565 13871c22.8-4.25 44.75 10.79 48.99 33.59 4.26 22.82-10.78 44.75-33.58 49.01-22.81 4.26-44.75-10.8-49-33.6-4.26-22.8 10.79-44.75 33.59-49z"/> <polygon class="fil0" points="19193 15609 19213 15746 19350 15767 19213 15788 19191 15924 19171 15787 19035 15766 19171 15746"/> <path class="fil0" d="m13565 15115c26.29-4.91 51.58 12.44 56.5 38.71 4.89 26.3-12.44 51.59-38.73 56.5-26.28 4.9-51.58-12.43-56.48-38.72-4.91-26.28 12.43-51.59 38.71-56.49z"/> <path class="fil0" d="m10950 18471c19.03-3.55 37.32 9 40.86 28 3.55 19.02-9 37.31-28 40.86-19.02 3.56-37.31-8.99-40.86-28-3.56-19.03 8.99-37.32 28-40.86z"/> <path class="fil0" d="m11201 17801c26.29-4.91 51.58 12.44 56.49 38.71 4.9 26.29-12.43 51.59-38.72 56.5-26.28 4.9-51.58-12.43-56.48-38.73-4.91-26.27 12.43-51.58 38.71-56.48z"/> <path class="fil0" d="m18590 16715c23.88-4.46 46.84 11.29 51.29 35.16 4.46 23.87-11.29 46.84-35.14 51.3-23.89 4.46-46.86-11.29-51.32-35.17-4.44-23.88 11.3-46.84 35.17-51.29z"/> <path class="fil0" d="m24423 18769c23.88-4.46 46.84 11.28 51.3 35.15 4.46 23.88-11.28 46.84-35.15 51.3-23.88 4.45-46.84-11.28-51.3-35.15-4.46-23.88 11.28-46.84 35.15-51.3z"/> <path class="fil0" d="m24023 19993c23.88-4.46 46.84 11.29 51.3 35.16 4.46 23.88-11.29 46.84-35.15 51.3-23.88 4.46-46.85-11.29-51.31-35.16-4.45-23.88 11.29-46.84 35.16-51.3z"/> <path class="fil2" d="m12999 11950c27.52-5.13 54.01 13.02 59.14 40.54 5.14 27.52-13.02 54-40.53 59.14-27.53 5.14-54-13.02-59.15-40.54-5.13-27.51 13.02-54 40.54-59.14z"/> </svg>